<svg version="1.2" baseProfile="tiny-ps" xmlns="http://www.w3.org/2000/svg" viewBox="0 0 23 23" width="23" height="23">
	<title>CHARITY HAND/HEART SMALL</title>
	<style>
		tspan { white-space:pre }
		.s0 { fill: #333333 } 
	</style>
	<path id="CHARITY HAND/HEART SMALL" class="s0" d="m6.73 6.73c-1.21-1.23-1.2-3.24 0.02-4.47c1.25-1.2 3.2-1.2 4.45 0l0.08 0.08l0.07-0.07c1.25-1.2 3.2-1.2 4.45 0l0 0c1.22 1.24 1.22 3.25 0 4.49l-4 4.38c-0.14 0.15-0.33 0.23-0.52 0.23c-0.17 0-0.34-0.06-0.48-0.19l-0.04-0.04l-4.02-4.4zm1.02-3.44c0.32-0.33 0.76-0.51 1.22-0.52c0 0 0.01 0 0.01 0c0.46 0 0.89 0.18 1.21 0.5l0.57 0.58c0.27 0.27 0.74 0.27 1 0l0.57-0.58c0.69-0.66 1.76-0.66 2.45 0c0.67 0.69 0.66 1.79-0.02 2.48l-3.5 3.83l-3.52-3.85c-0.66-0.68-0.66-1.77 0-2.45zm13.7 5.44v6.58c0 0.82-0.22 1.63-0.64 2.33l-2.3 3.86c-0.1 0.16-0.25 0.28-0.44 0.33c-0.18 0.05-0.37 0.02-0.54-0.08c-0.16-0.1-0.28-0.26-0.32-0.44c-0.05-0.18-0.02-0.38 0.08-0.54l2.3-3.87c0.29-0.48 0.44-1.03 0.44-1.6v-6.58c0-0.73-0.68-1.31-1.39-1.18c-0.58 0.12-1 0.66-0.98 1.27v4.68c0 0.08-0.02 0.15-0.04 0.21c-0.05 0.49-0.29 1.01-0.67 1.41l-1.35 1.69c-0.25 0.31-0.7 0.36-1 0.11c-0.3-0.25-0.35-0.7-0.11-1l1.39-1.73c0.46-0.48 0.47-1.2 0.02-1.66c-0.18-0.19-0.43-0.29-0.7-0.26c-0.33 0.02-0.64 0.18-0.84 0.43l-1.7 2.12c-0.44 0.55-0.69 1.25-0.69 1.96v4.37c0 0.39-0.32 0.71-0.71 0.71c-0.39 0-0.71-0.32-0.71-0.71v-4.37c0-0.71-0.24-1.4-0.69-1.96l-1.7-2.12c-0.21-0.26-0.51-0.42-0.84-0.43c-0.26-0.02-0.52 0.08-0.7 0.27c-0.21 0.21-0.32 0.49-0.33 0.79c0 0.32 0.11 0.61 0.31 0.83l1.42 1.78c0.25 0.31 0.2 0.76-0.11 1.01c-0.31 0.25-0.75 0.2-1-0.11l-1.39-1.73c-0.36-0.39-0.6-0.92-0.65-1.47h0c0 0-0.01-0.04-0.02-0.09l0-4.69c0.02-0.62-0.4-1.15-0.99-1.28c-0.63-0.11-1.25 0.33-1.36 0.98c-0.01 0.07-0.02 0.13-0.02 0.2v6.58c0 0.56 0.15 1.11 0.44 1.6l2.3 3.87c0.2 0.34 0.09 0.78-0.24 0.98c-0.11 0.07-0.24 0.1-0.36 0.1c-0.06 0-0.12-0.01-0.17-0.02c-0.18-0.05-0.34-0.16-0.44-0.33l-2.3-3.86c-0.42-0.71-0.64-1.51-0.64-2.33v-6.58c0-0.77 0.33-1.5 0.92-2c0.59-0.5 1.36-0.71 2.12-0.59c1.28 0.25 2.19 1.39 2.17 2.69v2.21c0.34-0.16 0.73-0.24 1.1-0.22c0.73 0.04 1.41 0.39 1.87 0.96l1.71 2.12c0.11 0.14 0.2 0.28 0.29 0.42c0.09-0.14 0.19-0.29 0.29-0.42l1.71-2.12c0.46-0.57 1.14-0.92 1.87-0.96c0.39-0.02 0.76 0.06 1.1 0.22v-2.21c-0.02-1.31 0.89-2.44 2.16-2.69c1.41-0.25 2.77 0.73 3.01 2.15c0.02 0.14 0.04 0.29 0.04 0.43z" />
</svg>